<svg xmlns="http://www.w3.org/2000/svg" viewBox="0 0 1120 720" width="1120" height="720" font-family="'Segoe UI','Microsoft YaHei','PingFang SC',Arial,sans-serif">
  <defs>
    <filter id="shadow" x="-5%" y="-5%" width="110%" height="115%">
      <feDropShadow dx="0" dy="6" stdDeviation="12" flood-color="#000000" flood-opacity="0.16"/>
    </filter>
    <linearGradient id="figA" x1="0" y1="0" x2="1" y2="1">
      <stop offset="0" stop-color="#dce9ff"/><stop offset="1" stop-color="#79aaf8"/>
    </linearGradient>
    <linearGradient id="figB" x1="0" y1="0" x2="1" y2="1">
      <stop offset="0" stop-color="#e7f6ef"/><stop offset="1" stop-color="#74c69d"/>
    </linearGradient>
  </defs>

  <rect width="1120" height="720" fill="#e9ebef"/>
  <rect x="8" y="8" width="1104" height="704" rx="12" fill="#ffffff" stroke="#d9dee7" filter="url(#shadow)"/>

  <g>
    <circle cx="36" cy="34" r="10" fill="none" stroke="#1f6feb" stroke-width="3"/>
    <line x1="43" y1="41" x2="52" y2="50" stroke="#1f6feb" stroke-width="3.5" stroke-linecap="round"/>
    <path d="M39 27 v9 c0 3 -1.8 4.7 -4.5 4.7 c-1.3 0 -2.3 -0.3 -3.1 -0.9" fill="none" stroke="#1f6feb" stroke-width="2.2" stroke-linecap="round"/>
    <text x="62" y="40" font-size="18" font-weight="700" fill="#1c1e21">JournalLens</text>

    <text x="742" y="38" font-size="12" fill="#5c6470">Language</text>
    <rect x="810" y="20" width="138" height="28" rx="7" fill="#ffffff" stroke="#d9dee7"/>
    <rect x="811" y="21" width="46" height="26" rx="6" fill="#1f6feb"/>
    <text x="823" y="39" font-size="12" font-weight="700" fill="#ffffff">Auto</text>
    <text x="871" y="39" font-size="12" fill="#5c6470">中文</text>
    <text x="916" y="39" font-size="12" fill="#5c6470">EN</text>
    <rect x="960" y="20" width="76" height="28" rx="6" fill="#ffffff" stroke="#d9dee7"/>
    <text x="976" y="39" font-size="13" fill="#1c1e21">Refresh</text>
    <rect x="1046" y="20" width="52" height="28" rx="6" fill="#ffffff" stroke="#c2415a"/>
    <text x="1058" y="39" font-size="13" fill="#c2415a">Tip</text>
  </g>
  <line x1="8" y1="60" x2="1112" y2="60" stroke="#d9dee7"/>

  <rect x="8" y="60" width="260" height="652" fill="#ffffff"/>
  <line x1="268" y1="60" x2="268" y2="712" stroke="#d9dee7"/>
  <text x="24" y="90" font-size="11" letter-spacing="0.6" fill="#5c6470">FOLLOW A JOURNAL</text>
  <rect x="24" y="104" width="228" height="38" rx="6" fill="#f6f7f9" stroke="#d9dee7"/>
  <text x="38" y="128" font-size="13" fill="#8b949e">Journal name or ISSN...</text>
  <text x="24" y="176" font-size="11" letter-spacing="0.6" fill="#5c6470">FOLLOWED JOURNALS</text>
  <text x="24" y="206" font-size="13" fill="#1c1e21">All journals</text>
  <text x="24" y="238" font-size="13" fill="#1c1e21">Nature Methods</text>
  <rect x="16" y="254" width="236" height="34" rx="6" fill="#e8f0fe"/>
  <text x="24" y="276" font-size="13" font-weight="700" fill="#1f6feb">Analytical Chemistry</text>
  <text x="24" y="316" font-size="13" fill="#1c1e21">eLife</text>

  <rect x="268" y="60" width="844" height="652" fill="#f6f7f9"/>

  <g>
    <rect x="286" y="80" width="808" height="286" rx="8" fill="#ffffff" stroke="#d9dee7"/>
    <rect x="304" y="100" width="180" height="140" rx="8" fill="url(#figA)"/>
    <polyline points="326,210 354,178 382,196 414,146 454,166" fill="none" stroke="#1556b8" stroke-width="4" opacity="0.78"/>
    <text x="504" y="116" font-size="15" font-weight="700" fill="#1c1e21">Rapid profiling of nanoscale chemical gradients in living cells</text>
    <text x="504" y="140" font-size="12" fill="#5c6470">A. Chen, M. Silva, R. Patel et al.</text>
    <text x="504" y="162" font-size="12"><tspan fill="#1556b8" font-weight="700">Analytical Chemistry</tspan><tspan fill="#5c6470"> · 2026-06-12 · Vol. 98</tspan></text>
    <rect x="733" y="151" width="30" height="15" rx="7" fill="#22863a"/>
    <text x="739" y="162" font-size="10" font-weight="700" fill="#ffffff">OA</text>
    <text x="504" y="188" font-size="12" fill="#1c1e21">A microfluidic imaging workflow resolves dynamic metabolite gradients</text>
    <text x="504" y="206" font-size="12" fill="#1c1e21">with subcellular spatial precision and links chemical variation to cell state.</text>
    <g>
      <rect x="504" y="232" width="86" height="58" rx="6" fill="#eef2f8" stroke="#d9dee7"/>
      <rect x="598" y="232" width="86" height="58" rx="6" fill="#eef2f8" stroke="#d9dee7"/>
      <rect x="692" y="232" width="86" height="58" rx="6" fill="#eef2f8" stroke="#d9dee7"/>
      <rect x="786" y="232" width="86" height="58" rx="6" fill="#eef2f8" stroke="#d9dee7"/>
      <text x="504" y="306" font-size="10" fill="#5c6470">Fig 1      Fig 2      Fig 3      Graphical abstract</text>
    </g>
    <rect x="504" y="320" width="108" height="30" rx="6" fill="#1f6feb"/>
    <text x="520" y="340" font-size="12" fill="#ffffff">Add to Zotero</text>
    <rect x="624" y="320" width="82" height="30" rx="6" fill="#ffffff" stroke="#d9dee7"/>
    <text x="638" y="340" font-size="12" fill="#1c1e21">Open page</text>
    <rect x="718" y="320" width="64" height="30" rx="6" fill="#ffffff" stroke="#d9dee7"/>
    <text x="732" y="340" font-size="12" fill="#1c1e21">EN / 中</text>
  </g>

  <g>
    <rect x="286" y="386" width="808" height="286" rx="8" fill="#ffffff" stroke="#d9dee7"/>
    <rect x="304" y="406" width="180" height="140" rx="8" fill="url(#figB)"/>
    <circle cx="364" cy="476" r="34" fill="none" stroke="#22863a" stroke-width="4" opacity="0.65"/>
    <path d="M330 510 q34 -64 68 0" fill="none" stroke="#22863a" stroke-width="4" opacity="0.65"/>
    <text x="504" y="422" font-size="15" font-weight="700" fill="#1c1e21">用于高通量单细胞读出的可重构传感平台</text>
    <text x="504" y="446" font-size="12" fill="#5c6470">Y. Wang, D. Lee, I. Morgan et al.</text>
    <text x="504" y="468" font-size="12"><tspan fill="#1556b8" font-weight="700">Nature Methods</tspan><tspan fill="#5c6470"> · 2026-06-10</tspan></text>
    <text x="504" y="494" font-size="12" fill="#1c1e21">该方法将可重构探针、自动化显微成像与统计建模结合,</text>
    <text x="504" y="512" font-size="12" fill="#1c1e21">在复杂样本中快速识别细胞状态差异并保留空间上下文。</text>
    <g>
      <rect x="504" y="538" width="86" height="58" rx="6" fill="#eef2f8" stroke="#d9dee7"/>
      <rect x="598" y="538" width="86" height="58" rx="6" fill="#eef2f8" stroke="#d9dee7"/>
      <rect x="692" y="538" width="86" height="58" rx="6" fill="#eef2f8" stroke="#d9dee7"/>
      <text x="504" y="612" font-size="10" fill="#5c6470">图 1      图 2      图 3</text>
    </g>
    <rect x="504" y="626" width="108" height="30" rx="6" fill="#1f6feb"/>
    <text x="520" y="646" font-size="12" fill="#ffffff">Add to Zotero</text>
    <rect x="624" y="626" width="82" height="30" rx="6" fill="#ffffff" stroke="#d9dee7"/>
    <text x="638" y="646" font-size="12" fill="#1c1e21">Open page</text>
    <rect x="718" y="626" width="70" height="30" rx="6" fill="#ffffff" stroke="#1f6feb"/>
    <text x="732" y="646" font-size="12" fill="#1f6feb">Original</text>
  </g>
</svg>
